# xmcd CD database file
#
# Track frame offsets:
#	150
#	27412
#	49232
#	65762
#	89757
#	105782
#	132995
#	171147
#	196642
#	224662
#	237052
#
# Disc length: 3581 seconds
#
# Revision: 0
# Processed by: cddbd v1.4PL0 Copyright (c) Steve Scherf et al.
# Submitted via: CDex 1.51
#
DISCID=9a0dfb0b
DTITLE=Jari Perkiömäki - Shades
DYEAR=1996
DGENRE=Jazz
TTITLE0=Song for India
TTITLE1=Invisible
TTITLE2=Lumetar
TTITLE3=Teddy Bear
TTITLE4=Wandering minds
TTITLE5=Santtu
TTITLE6=Sekhmet
TTITLE7=Namelock
TTITLE8=Shades
TTITLE9=Re-Rhythm
TTITLE10=Picasso
EXTD=YEAR: 1996
EXTT0=
EXTT1=
EXTT2=
EXTT3=
EXTT4=
EXTT5=
EXTT6=
EXTT7=
EXTT8=
EXTT9=
EXTT10=
PLAYORDER=
